<?xml version="1.0" encoding="utf-8"?>
<!-- Generator: Adobe Illustrator 28.0.0, SVG Export Plug-In . SVG Version: 6.00 Build 0)  -->
<svg version="1.1" id="Layer_1" xmlns="http://www.w3.org/2000/svg" xmlns:xlink="http://www.w3.org/1999/xlink" x="0px" y="0px"
	 viewBox="0 0 546.73 792" style="enable-background:new 0 0 546.73 792;" xml:space="preserve">
<style type="text/css">
	.st0{fill:#E2CD67;}
	.st1{fill:#CC6699;}
</style>
<g>
	<rect class="st0" width="546.73" height="371.34"/>
	<rect y="371.34" class="st1" width="546.73" height="420.66"/>
	<g>
		<g>
			<path class="st1" d="M462.4,127.46c-10.34-22.43-24.69-41.17-43.05-56.2C401,56.23,379.04,44.89,353.48,37.25
				c-25.56-7.64-53.56-11.47-83.99-11.47c-43.01-0.01-80.75,7.62-113.21,22.87c-32.67,15.1-56,35.16-70.01,60.18
				c-14,24.87-21.01,61.22-21.03,109.07l-0.03,130.32l11.26,0l0-12.04c0-0.42,0.05-0.81,0.06-1.23
				c-2.08-15.65,8.46-29.95,18.75-41.97c1.01-2.52,2.12-4.98,3.37-7.5c1.78-10.16,0.5-19.26-1.05-28.63h-0.41
				c-2.84-9.13-5.02-17.71-6.54-25.74c-1.52-8.03-2.28-15.58-2.28-22.66c0-18.73,4.27-36,12.79-51.82
				c8.53-15.81,20.75-29.42,36.68-40.83c15.93-11.41,35.26-20.3,57.98-26.66c22.73-6.37,48.29-9.55,76.69-9.54
				c28.2,0.01,53.66,3.24,76.38,9.7c22.72,6.46,42.05,15.36,57.97,26.69c15.93,11.34,28.2,24.76,36.81,40.26
				c8.62,15.51,12.92,32.31,12.92,50.41c0,13.85-2.85,30.61-8.53,50.28l-310.16-0.08c1.76,8.79,2.62,17.93,1.87,26.73
				c-0.57,6.78-2.67,12.79-5.35,18.62c1.26-0.01,2.52-0.02,3.83-0.02l266.58,0.07c23.54,0.01,38.55,1.74,45.04,5.2
				c11.16,5.83,16.73,15.43,16.73,28.8l0,12.04l11.26,0l0.04-143.07C477.91,175.82,472.75,149.89,462.4,127.46z"/>
		</g>
		<g>
			<path class="st0" d="M358.44,381.48v10.79c15.35,1.94,26.18,5.58,32.5,10.93c6.31,5.34,9.47,11.03,9.47,17.05
				c0,8.55-4.57,24.19-13.7,46.92l-93.27,228.8L192.89,464.25c-0.59-2.24-1.16-4.38-1.73-6.45c-9.69-18.69-16.26-37.8-32.65-52.13
				c-10.29-9-22.24-16.91-34.61-23.61c-0.81-0.1-1.59-0.29-2.35-0.59H61.73v10.79c12.24,0.97,21.86,3.16,28.85,6.56
				c7,3.4,12.92,8.12,17.78,14.14c2.91,3.5,8.26,14.19,16.03,32.06l148.06,340.72h10.78L421.1,449.39
				c3.5-8.35,6.94-15.79,10.35-22.3c3.4-6.51,7.33-12.1,11.8-16.76c4.47-4.66,9.66-8.45,15.59-11.37c5.92-2.91,13.07-5.14,21.42-6.7
				v-10.79H358.44z"/>
		</g>
	</g>
</g>
</svg>
